<svg width="16" height="15" viewBox="0 0 16 15" fill="none" xmlns="http://www.w3.org/2000/svg">
<path d="M6.65676 0.949539C6.95676 0.0285391 8.25976 0.0285391 8.55876 0.949539L9.62876 4.24154C9.69413 4.44203 9.82121 4.61672 9.99183 4.74064C10.1625 4.86457 10.3679 4.93138 10.5788 4.93154H14.0408C15.0098 4.93154 15.4118 6.17154 14.6288 6.74154L11.8288 8.77554C11.6578 8.89957 11.5305 9.07455 11.4651 9.27539C11.3997 9.47623 11.3996 9.69263 11.4648 9.89354L12.5348 13.1855C12.8348 14.1065 11.7798 14.8735 10.9948 14.3035L8.19476 12.2695C8.02397 12.1455 7.81832 12.0788 7.60726 12.0788C7.3962 12.0788 7.19056 12.1455 7.01976 12.2695L4.21976 14.3035C3.43576 14.8735 2.38176 14.1065 2.68076 13.1855L3.75076 9.89354C3.81594 9.69263 3.81582 9.47623 3.75043 9.27539C3.68504 9.07455 3.55773 8.89957 3.38676 8.77554L0.587762 6.74254C-0.195238 6.17254 0.207762 4.93254 1.17576 4.93254H4.63676C4.84781 4.93259 5.05346 4.86588 5.22429 4.74194C5.39511 4.618 5.52234 4.44319 5.58776 4.24254L6.65776 0.950539L6.65676 0.949539Z" fill="#5270FF"/>
</svg>
