<svg width="132" height="133" viewBox="0 0 132 133" fill="none" xmlns="http://www.w3.org/2000/svg">
<g id="check-circle">
<path id="Vector" d="M49.6122 66.4993L60.5376 77.4247L82.3884 55.5739M115.165 66.4993C115.165 72.9557 113.893 79.3488 111.422 85.3137C108.952 91.2786 105.33 96.6984 100.765 101.264C96.1994 105.829 90.7796 109.451 84.8147 111.921C78.8498 114.392 72.4567 115.664 66.0003 115.664C59.5439 115.664 53.1508 114.392 47.1859 111.921C41.221 109.451 35.8012 105.829 31.2358 101.264C26.6705 96.6984 23.0491 91.2786 20.5784 85.3137C18.1076 79.3488 16.8359 72.9557 16.8359 66.4993C16.8359 53.4601 22.0157 40.955 31.2358 31.7349C40.456 22.5148 52.9611 17.335 66.0003 17.335C79.0395 17.335 91.5447 22.5148 100.765 31.7349C109.985 40.955 115.165 53.4601 115.165 66.4993Z" stroke="#439F6E" stroke-width="10.9254" stroke-linecap="round" stroke-linejoin="round"/>
</g>
</svg>
