<svg width="33" height="33" viewBox="0 0 33 33" fill="none" xmlns="http://www.w3.org/2000/svg">
<g id="ViewBoardsOutline">
<path id="Vector" d="M12.1108 22.7551V9.42179M12.1108 22.7551C12.1108 23.4624 11.8299 24.1406 11.3298 24.6407C10.8297 25.1408 10.1514 25.4218 9.44417 25.4218H6.77751C6.07026 25.4218 5.39199 25.1408 4.89189 24.6407C4.39179 24.1406 4.11084 23.4624 4.11084 22.7551V9.42179C4.11084 8.71455 4.39179 8.03627 4.89189 7.53618C5.39199 7.03608 6.07026 6.75513 6.77751 6.75513H9.44417C10.1514 6.75513 10.8297 7.03608 11.3298 7.53618C11.8299 8.03627 12.1108 8.71455 12.1108 9.42179M12.1108 22.7551C12.1108 23.4624 12.3918 24.1406 12.8919 24.6407C13.392 25.1408 14.0703 25.4218 14.7775 25.4218H17.4442C18.1514 25.4218 18.8297 25.1408 19.3298 24.6407C19.8299 24.1406 20.1108 23.4624 20.1108 22.7551M12.1108 9.42179C12.1108 8.71455 12.3918 8.03627 12.8919 7.53618C13.392 7.03608 14.0703 6.75513 14.7775 6.75513H17.4442C18.1514 6.75513 18.8297 7.03608 19.3298 7.53618C19.8299 8.03627 20.1108 8.71455 20.1108 9.42179M20.1108 22.7551V9.42179M20.1108 22.7551C20.1108 23.4624 20.3918 24.1406 20.8919 24.6407C21.392 25.1408 22.0703 25.4218 22.7775 25.4218H25.4442C26.1514 25.4218 26.8297 25.1408 27.3298 24.6407C27.8299 24.1406 28.1108 23.4624 28.1108 22.7551V9.42179C28.1108 8.71455 27.8299 8.03627 27.3298 7.53618C26.8297 7.03608 26.1514 6.75513 25.4442 6.75513H22.7775C22.0703 6.75513 21.392 7.03608 20.8919 7.53618C20.3918 8.03627 20.1108 8.71455 20.1108 9.42179" stroke="#5270FF" stroke-width="2" stroke-linecap="round" stroke-linejoin="round"/>
</g>
</svg>
