<svg width="33" height="33" viewBox="0 0 33 33" fill="none" xmlns="http://www.w3.org/2000/svg">
<g id="CollectionOutline">
<path id="Vector" d="M25.6742 14.755H7.00749M25.6742 14.755C26.3814 14.755 27.0597 15.036 27.5598 15.5361C28.0599 16.0362 28.3408 16.7145 28.3408 17.4217V25.4217C28.3408 26.129 28.0599 26.8072 27.5598 27.3073C27.0597 27.8074 26.3814 28.0884 25.6742 28.0884H7.00749C6.30024 28.0884 5.62197 27.8074 5.12187 27.3073C4.62177 26.8072 4.34082 26.129 4.34082 25.4217V17.4217C4.34082 16.7145 4.62177 16.0362 5.12187 15.5361C5.62197 15.036 6.30024 14.755 7.00749 14.755M25.6742 14.755V12.0884C25.6742 11.3811 25.3932 10.7029 24.8931 10.2028C24.393 9.70266 23.7147 9.42171 23.0075 9.42171M7.00749 14.755V12.0884C7.00749 11.3811 7.28844 10.7029 7.78854 10.2028C8.28863 9.70266 8.96691 9.42171 9.67415 9.42171M23.0075 9.42171V6.75505C23.0075 6.0478 22.7265 5.36952 22.2264 4.86943C21.7263 4.36933 21.0481 4.08838 20.3408 4.08838H12.3408C11.6336 4.08838 10.9553 4.36933 10.4552 4.86943C9.95511 5.36952 9.67415 6.0478 9.67415 6.75505V9.42171M23.0075 9.42171H9.67415" stroke="#5270FF" stroke-width="2" stroke-linecap="round" stroke-linejoin="round"/>
</g>
</svg>
