<svg width="33" height="33" viewBox="0 0 33 33" fill="none" xmlns="http://www.w3.org/2000/svg">
<g id="ChatAlt2Outline">
<path id="Vector" d="M22.7775 10.755H25.4442C26.1514 10.755 26.8297 11.0359 27.3298 11.536C27.8299 12.0361 28.1108 12.7144 28.1108 13.4216V21.4216C28.1108 22.1289 27.8299 22.8072 27.3298 23.3072C26.8297 23.8073 26.1514 24.0883 25.4442 24.0883H22.7775V29.4216L17.4442 24.0883H12.1108C11.7606 24.0887 11.4138 24.0198 11.0902 23.8857C10.7667 23.7516 10.4728 23.555 10.2255 23.307M10.2255 23.307L14.7775 18.755H20.1108C20.8181 18.755 21.4964 18.474 21.9965 17.9739C22.4966 17.4738 22.7775 16.7955 22.7775 16.0883V8.0883C22.7775 7.38105 22.4966 6.70278 21.9965 6.20268C21.4964 5.70258 20.8181 5.42163 20.1108 5.42163H6.77751C6.07026 5.42163 5.39199 5.70258 4.89189 6.20268C4.39179 6.70278 4.11084 7.38105 4.11084 8.0883V16.0883C4.11084 16.7955 4.39179 17.4738 4.89189 17.9739C5.39199 18.474 6.07026 18.755 6.77751 18.755H9.44417V24.0883L10.2255 23.307Z" stroke="#5270FF" stroke-width="2" stroke-linecap="round" stroke-linejoin="round"/>
</g>
</svg>
