<svg width="33" height="33" viewBox="0 0 33 33" fill="none" xmlns="http://www.w3.org/2000/svg">
<g id="ChartPieOutline">
<path id="Vector" d="M15.0078 4.16138C12.7618 4.41238 10.6323 5.29247 8.86436 6.70036C7.09646 8.10824 5.76203 9.9867 5.01463 12.1195C4.26723 14.2524 4.13725 16.5529 4.63965 18.7564C5.14205 20.9598 6.25641 22.9766 7.85447 24.5747C9.45253 26.1727 11.4693 27.2871 13.6728 27.7895C15.8762 28.2919 18.1768 28.1619 20.3096 27.4145C22.4424 26.6671 24.3209 25.3327 25.7288 23.5648C27.1367 21.7969 28.0168 19.6674 28.2678 17.4214H15.0078V4.16138Z" stroke="#5270FF" stroke-width="2" stroke-linecap="round" stroke-linejoin="round"/>
<path id="Vector_2" d="M27.6582 12.0881H20.3408V4.77075C22.028 5.36932 23.5604 6.3368 24.8262 7.60267C26.0921 8.86854 27.0596 10.4009 27.6582 12.0881Z" stroke="#5270FF" stroke-width="2" stroke-linecap="round" stroke-linejoin="round"/>
</g>
</svg>
