<svg width="20" height="21" viewBox="0 0 20 21" fill="none" xmlns="http://www.w3.org/2000/svg">
<g id="icon">
<path id="Vector" fill-rule="evenodd" clip-rule="evenodd" d="M8.25685 3.59898C9.02185 2.23898 10.9788 2.23898 11.7428 3.59898L17.3228 13.519C18.0728 14.853 17.1098 16.499 15.5808 16.499H4.41985C2.88985 16.499 1.92685 14.853 2.67685 13.519L8.25685 3.59898ZM10.9998 13.5C10.9998 13.7652 10.8945 14.0196 10.707 14.2071C10.5194 14.3946 10.2651 14.5 9.99985 14.5C9.73463 14.5 9.48028 14.3946 9.29274 14.2071C9.10521 14.0196 8.99985 13.7652 8.99985 13.5C8.99985 13.2348 9.10521 12.9804 9.29274 12.7929C9.48028 12.6053 9.73463 12.5 9.99985 12.5C10.2651 12.5 10.5194 12.6053 10.707 12.7929C10.8945 12.9804 10.9998 13.2348 10.9998 13.5ZM9.99985 5.49998C9.73463 5.49998 9.48028 5.60534 9.29274 5.79287C9.10521 5.98041 8.99985 6.23476 8.99985 6.49998V9.49998C8.99985 9.7652 9.10521 10.0195 9.29274 10.2071C9.48028 10.3946 9.73463 10.5 9.99985 10.5C10.2651 10.5 10.5194 10.3946 10.707 10.2071C10.8945 10.0195 10.9998 9.7652 10.9998 9.49998V6.49998C10.9998 6.23476 10.8945 5.98041 10.707 5.79287C10.5194 5.60534 10.2651 5.49998 9.99985 5.49998Z" fill="#F93232"/>
</g>
</svg>
