<svg width="33" height="32" viewBox="0 0 33 32" fill="none" xmlns="http://www.w3.org/2000/svg">
<g id="Social Media">
<path id="Subtract" fill-rule="evenodd" clip-rule="evenodd" d="M4.77441 16C4.77441 21.9333 9.10775 26.8667 14.7744 27.8667L14.8413 27.8132C14.819 27.8088 14.7967 27.8045 14.7744 27.8V19.3333H11.7744V16H14.7744V13.3333C14.7744 10.3333 16.7077 8.66667 19.4411 8.66667C20.3077 8.66667 21.2411 8.8 22.1077 8.93333V12H20.5744C19.1077 12 18.7744 12.7333 18.7744 13.6667V16H21.9744L21.4411 19.3333H18.7744V27.8C18.7521 27.8045 18.7298 27.8088 18.7075 27.8132L18.7744 27.8667C24.4411 26.8667 28.7744 21.9333 28.7744 16C28.7744 9.4 23.3744 4 16.7744 4C10.1744 4 4.77441 9.4 4.77441 16Z" fill="#F1F5F9"/>
</g>
</svg>
