<svg width="21" height="21" viewBox="0 0 21 21" fill="none" xmlns="http://www.w3.org/2000/svg">
<g id="icon">
<path id="Vector" fill-rule="evenodd" clip-rule="evenodd" d="M18.5 10.5C18.5 12.6217 17.6571 14.6566 16.1569 16.1569C14.6566 17.6571 12.6217 18.5 10.5 18.5C8.37827 18.5 6.34344 17.6571 4.84315 16.1569C3.34285 14.6566 2.5 12.6217 2.5 10.5C2.5 8.37827 3.34285 6.34344 4.84315 4.84315C6.34344 3.34285 8.37827 2.5 10.5 2.5C12.6217 2.5 14.6566 3.34285 16.1569 4.84315C17.6571 6.34344 18.5 8.37827 18.5 10.5ZM11.5 6.5C11.5 6.76522 11.3946 7.01957 11.2071 7.20711C11.0196 7.39464 10.7652 7.5 10.5 7.5C10.2348 7.5 9.98043 7.39464 9.79289 7.20711C9.60536 7.01957 9.5 6.76522 9.5 6.5C9.5 6.23478 9.60536 5.98043 9.79289 5.79289C9.98043 5.60536 10.2348 5.5 10.5 5.5C10.7652 5.5 11.0196 5.60536 11.2071 5.79289C11.3946 5.98043 11.5 6.23478 11.5 6.5ZM9.5 9.5C9.23478 9.5 8.98043 9.60536 8.79289 9.79289C8.60536 9.98043 8.5 10.2348 8.5 10.5C8.5 10.7652 8.60536 11.0196 8.79289 11.2071C8.98043 11.3946 9.23478 11.5 9.5 11.5V14.5C9.5 14.7652 9.60536 15.0196 9.79289 15.2071C9.98043 15.3946 10.2348 15.5 10.5 15.5H11.5C11.7652 15.5 12.0196 15.3946 12.2071 15.2071C12.3946 15.0196 12.5 14.7652 12.5 14.5C12.5 14.2348 12.3946 13.9804 12.2071 13.7929C12.0196 13.6054 11.7652 13.5 11.5 13.5V10.5C11.5 10.2348 11.3946 9.98043 11.2071 9.79289C11.0196 9.60536 10.7652 9.5 10.5 9.5H9.5Z" fill="#3B82F6"/>
</g>
</svg>
