<svg width="33" height="32" viewBox="0 0 33 32" fill="none" xmlns="http://www.w3.org/2000/svg">
<g id="Social Media">
<path id="Vector" d="M16.7747 4.36377C13.6145 4.36377 13.2179 4.37759 11.9768 4.43407C10.738 4.4908 9.89246 4.68692 9.1526 4.97468C8.38729 5.27189 7.7381 5.66947 7.09133 6.3165C6.44408 6.96328 6.04652 7.6125 5.74834 8.37759C5.45987 9.11771 5.26351 9.96353 5.20775 11.2018C5.15224 12.443 5.1377 12.8399 5.1377 16.0001C5.1377 19.1604 5.15176 19.5558 5.208 20.797C5.26496 22.0358 5.46108 22.8813 5.74859 23.6212C6.04603 24.3866 6.4436 25.0358 7.09061 25.6826C7.73713 26.3298 8.38632 26.7284 9.15115 27.0256C9.89149 27.3133 10.7373 27.5095 11.9758 27.5662C13.217 27.6227 13.6133 27.6365 16.7732 27.6365C19.9336 27.6365 20.329 27.6227 21.5702 27.5662C22.8089 27.5095 23.6554 27.3133 24.3958 27.0256C25.1608 26.7284 25.8091 26.3298 26.4556 25.6826C27.1028 25.0358 27.5004 24.3866 27.7986 23.6215C28.0846 22.8813 28.281 22.0355 28.3392 20.7972C28.3949 19.556 28.4095 19.1604 28.4095 16.0001C28.4095 12.8399 28.3949 12.4433 28.3392 11.2021C28.281 9.96328 28.0846 9.11771 27.7986 8.37783C27.5004 7.6125 27.1028 6.96328 26.4556 6.3165C25.8083 5.66922 25.1611 5.27165 24.3951 4.97468C23.6533 4.68692 22.8072 4.4908 21.5685 4.43407C20.3273 4.37759 19.9322 4.36377 16.771 4.36377H16.7747ZM15.7308 6.46074C16.0406 6.46025 16.3863 6.46074 16.7747 6.46074C19.8815 6.46074 20.2497 6.47189 21.4766 6.52765C22.6111 6.57953 23.2268 6.7691 23.637 6.92838C24.18 7.13928 24.5672 7.39141 24.9742 7.79868C25.3814 8.20595 25.6336 8.59383 25.8449 9.13686C26.0042 9.54656 26.194 10.1623 26.2457 11.2969C26.3014 12.5235 26.3135 12.892 26.3135 15.9975C26.3135 19.1029 26.3014 19.4714 26.2457 20.6981C26.1938 21.8326 26.0042 22.4484 25.8449 22.8581C25.634 23.4011 25.3814 23.7878 24.9742 24.1948C24.5669 24.6021 24.1803 24.8542 23.637 25.0651C23.2273 25.2251 22.6111 25.4142 21.4766 25.4661C20.25 25.5218 19.8815 25.534 16.7747 25.534C13.6676 25.534 13.2994 25.5218 12.0728 25.4661C10.9382 25.4137 10.3225 25.2241 9.9121 25.0649C9.36908 24.854 8.98122 24.6018 8.57395 24.1946C8.16669 23.7873 7.91458 23.4004 7.70319 22.8571C7.54393 22.4474 7.35411 21.8316 7.30248 20.6971C7.24672 19.4704 7.23557 19.102 7.23557 15.9946C7.23557 12.8872 7.24672 12.5206 7.30248 11.294C7.35436 10.1594 7.54393 9.54365 7.70319 9.13347C7.9141 8.59044 8.16669 8.20256 8.57395 7.79528C8.98122 7.38801 9.36908 7.13589 9.9121 6.9245C10.3223 6.7645 10.9382 6.57541 12.0728 6.52328C13.1462 6.4748 13.5622 6.46025 15.7308 6.45783V6.46074ZM22.9859 8.39286C22.215 8.39286 21.5896 9.01759 21.5896 9.78874C21.5896 10.5596 22.215 11.1851 22.9859 11.1851C23.7568 11.1851 24.3822 10.5596 24.3822 9.78874C24.3822 9.01783 23.7568 8.39238 22.9859 8.39238V8.39286ZM16.7747 10.0244C13.4747 10.0244 10.7991 12.7 10.7991 16.0001C10.7991 19.3003 13.4747 21.9747 16.7747 21.9747C20.0747 21.9747 22.7493 19.3003 22.7493 16.0001C22.7493 12.7 20.0745 10.0244 16.7744 10.0244H16.7747ZM16.7747 12.1213C18.9167 12.1213 20.6533 13.8578 20.6533 16.0001C20.6533 18.1422 18.9167 19.8789 16.7747 19.8789C14.6324 19.8789 12.896 18.1422 12.896 16.0001C12.896 13.8578 14.6324 12.1213 16.7747 12.1213Z" fill="#F1F5F9"/>
</g>
</svg>
