<svg width="25" height="24" viewBox="0 0 25 24" fill="none" xmlns="http://www.w3.org/2000/svg">
<g id="star">
<path id="Vector" d="M11.3206 3.51255C11.6806 2.40736 13.2442 2.40736 13.603 3.51255L14.887 7.46293C14.9654 7.70352 15.1179 7.91314 15.3227 8.06185C15.5274 8.21056 15.7739 8.29074 16.027 8.29093H20.1814C21.3442 8.29093 21.8266 9.77892 20.887 10.4629L17.527 12.9037C17.3218 13.0525 17.169 13.2625 17.0906 13.5035C17.0121 13.7445 17.012 14.0042 17.0902 14.2453L18.3742 18.1957C18.7342 19.3009 17.4682 20.2213 16.5262 19.5373L13.1662 17.0965C12.9612 16.9477 12.7145 16.8676 12.4612 16.8676C12.2079 16.8676 11.9612 16.9477 11.7562 17.0965L8.39622 19.5373C7.45543 20.2213 6.19063 19.3009 6.54943 18.1957L7.83343 14.2453C7.91163 14.0042 7.91149 13.7445 7.83302 13.5035C7.75456 13.2625 7.60179 13.0525 7.39663 12.9037L4.03784 10.4641C3.09825 9.78012 3.58185 8.29213 4.74344 8.29213H8.89662C9.14988 8.29219 9.39666 8.21213 9.60164 8.06341C9.80663 7.91468 9.9593 7.70491 10.0378 7.46413L11.3218 3.51375L11.3206 3.51255Z" fill="#5270FF"/>
</g>
</svg>
