<svg width="24" height="24" viewBox="0 0 24 24" fill="none" xmlns="http://www.w3.org/2000/svg">
<g id="users">
<path id="Vector" d="M12.001 4.354C12.5384 3.7447 13.2487 3.31351 14.0372 3.11779C14.8257 2.92208 15.6552 2.97112 16.4151 3.2584C17.1751 3.54568 17.8296 4.05757 18.2915 4.72596C18.7534 5.39435 19.0008 6.18754 19.0008 7C19.0008 7.81246 18.7534 8.60565 18.2915 9.27404C17.8296 9.94243 17.1751 10.4543 16.4151 10.7416C15.6552 11.0289 14.8257 11.0779 14.0372 10.8822C13.2487 10.6865 12.5384 10.2553 12.001 9.646M15.001 21H3.00098V20C3.00098 18.4087 3.63312 16.8826 4.75834 15.7574C5.88355 14.6321 7.40968 14 9.00098 14C10.5923 14 12.1184 14.6321 13.2436 15.7574C14.3688 16.8826 15.001 18.4087 15.001 20V21ZM15.001 21H21.001V20C21.0011 18.9467 20.724 17.9119 20.1974 16.9997C19.6709 16.0875 18.9135 15.3299 18.0013 14.8032C17.0892 14.2765 16.0545 13.9992 15.0012 13.9992C13.9479 13.9991 12.9132 14.2764 12.001 14.803M13.001 7C13.001 8.06087 12.5795 9.07828 11.8294 9.82843C11.0793 10.5786 10.0618 11 9.00098 11C7.94011 11 6.92269 10.5786 6.17255 9.82843C5.4224 9.07828 5.00098 8.06087 5.00098 7C5.00098 5.93913 5.4224 4.92172 6.17255 4.17157C6.92269 3.42143 7.94011 3 9.00098 3C10.0618 3 11.0793 3.42143 11.8294 4.17157C12.5795 4.92172 13.001 5.93913 13.001 7Z" stroke="#5270FF" stroke-width="2" stroke-linecap="round" stroke-linejoin="round"/>
</g>
</svg>
