<svg width="33" height="32" viewBox="0 0 33 32" fill="none" xmlns="http://www.w3.org/2000/svg">
<g id="Social Media">
<g id="Vector">
<path d="M9.51005 11.2266C10.8192 11.2266 11.8804 10.1654 11.8804 8.85624C11.8804 7.5471 10.8192 6.48584 9.51005 6.48584C8.20091 6.48584 7.13965 7.5471 7.13965 8.85624C7.13965 10.1654 8.20091 11.2266 9.51005 11.2266Z" fill="#F1F5F9"/>
<path d="M14.0513 12.9784H17.9798V14.7781C17.9798 14.7781 19.0459 12.646 21.9465 12.646C24.5339 12.646 26.6773 13.9206 26.6773 17.8058V25.9986H22.6063V18.7986C22.6063 16.5067 21.3827 16.2546 20.4503 16.2546C18.5153 16.2546 18.184 17.9237 18.184 19.0976V25.9986H14.0513V12.9784Z" fill="#F1F5F9"/>
<path d="M7.44371 12.9784H11.5764V25.9986H7.44371V12.9784Z" fill="#F1F5F9"/>
</g>
</g>
</svg>
