<svg width="47" height="45" viewBox="0 0 47 45" fill="none" xmlns="http://www.w3.org/2000/svg">
<g id="Icon">
<g id="Vector">
<path d="M18.1949 0.648492C14.5283 1.49463 14.1053 1.66699 11.6452 3.39061C11.0028 3.84502 10.8617 4.12706 11.4728 4.80084C20.8274 15.0485 19.8715 29.6209 12.6637 41.4512C12.1623 42.266 12.319 42.5324 13.1181 42.8614C21.2034 46.1833 28.803 45.3058 35.8542 40.135C37.0137 39.2732 38.1889 38.8501 39.6305 38.9128C41.3854 38.9911 43.1247 38.9441 44.8797 38.9441C46.5406 38.9441 47.1204 38.0353 46.4466 36.4997C45.7101 34.8231 44.9893 33.1465 44.1902 31.5012C43.6105 30.3104 43.5478 29.1665 43.8455 27.8816C46.6033 16.1767 40.1005 4.7695 28.6463 1.22825C24.9484 0.100069 21.2034 0.0217223 18.1949 0.648492Z" fill="#5270FF"/>
<path fill-rule="evenodd" clip-rule="evenodd" d="M44.4921 22.5417C44.4921 34.8278 34.5322 44.7877 22.246 44.7877C9.95989 44.7877 0 34.8278 0 22.5417C0 10.2555 9.95989 0.295646 22.246 0.295646C34.5322 0.295646 44.4921 10.2555 44.4921 22.5417ZM43.0148 22.5417C43.0148 34.0119 33.7163 43.3104 22.246 43.3104C20.0653 43.3104 17.963 42.9743 15.9882 42.3511H18.8037V4.40568L11.638 4.6827C14.7428 2.8345 18.3704 1.77294 22.246 1.77294C33.7163 1.77294 43.0148 11.0714 43.0148 22.5417Z" fill="#5270FF"/>
</g>
<path id="Vector_2" d="M28.137 8.76551C30.1584 8.76551 32.1797 8.76551 34.201 8.76551C35.8776 8.78118 36.6298 9.53331 36.6768 11.1786C36.7081 12.3068 36.7238 13.4349 36.6768 14.5631C36.6298 15.9577 35.8776 16.7412 34.4831 16.7568C31.0985 16.7882 27.714 16.7568 24.3294 16.7725C23.7183 16.7725 23.4049 16.5218 23.2796 15.9264C22.8252 13.7483 22.1671 11.633 21.2426 9.61165C20.9449 8.93787 21.0859 8.7185 21.8223 8.73417C23.922 8.76551 26.0217 8.73417 28.1214 8.73417L28.137 8.76551Z" fill="#F9F9F9"/>
<path id="Vector_3" d="M27.5887 28.5864C26.5388 28.5864 25.489 28.5707 24.4391 28.5864C23.734 28.6021 23.4363 28.367 23.5773 27.6149C23.9691 25.5779 24.0631 23.5252 23.9691 21.4569C23.9377 20.7674 24.1884 20.4697 24.8936 20.4697C26.8679 20.5011 28.8579 20.4384 30.8322 20.5011C32.3364 20.5481 33.0729 21.3629 33.1042 22.8828C33.1199 23.964 33.1199 25.0608 33.1042 26.142C33.0729 27.6932 32.2894 28.4924 30.7225 28.5394C29.6727 28.5707 28.6228 28.5394 27.573 28.5394L27.5887 28.5864Z" fill="#F9F9F9"/>
<path id="Vector_4" d="M12.2307 23.6957C12.2307 18.3448 12.2307 12.9939 12.2307 7.64293C12.2307 7.04142 12.3654 6.90984 12.9638 6.90984C13.6562 6.90984 14.3517 6.91924 15.044 6.90357C15.326 6.89731 15.5077 7.00696 15.6675 7.22939C17.8354 10.2651 19.2765 13.611 19.9845 17.2733C20.915 22.0854 20.5453 26.8317 19.2452 31.5279C18.4025 34.5667 17.1587 37.4396 15.6361 40.1934C15.5265 40.3907 15.373 40.4878 15.1443 40.4878C14.3485 40.4847 13.5559 40.4878 12.7602 40.4847C12.4281 40.4847 12.2526 40.303 12.2338 39.9709C12.2276 39.8801 12.2338 39.7861 12.2338 39.6952C12.2338 34.3631 12.2338 29.031 12.2338 23.6988L12.2307 23.6957Z" fill="#F9F9F9"/>
</g>
</svg>
