<svg width="174" height="26" viewBox="0 0 174 26" fill="none" xmlns="http://www.w3.org/2000/svg">
<path d="M10.8786 0.804109C8.83616 1.27545 8.60049 1.37146 7.23011 2.3316C6.87224 2.58473 6.79369 2.74184 7.1341 3.11717C12.345 8.82564 11.8126 16.9432 7.79747 23.5332C7.51815 23.9871 7.60544 24.1355 8.0506 24.3188C12.5545 26.1692 16.7879 25.6804 20.7157 22.8C21.3616 22.32 22.0163 22.0843 22.8193 22.1192C23.7969 22.1628 24.7658 22.1367 25.7434 22.1367C26.6686 22.1367 26.9915 21.6304 26.6162 20.775C26.206 19.8411 25.8045 18.9071 25.3593 17.9906C25.0363 17.3272 25.0014 16.6901 25.1673 15.9743C26.7035 9.45409 23.0811 3.09971 16.7006 1.12707C14.6406 0.49861 12.5545 0.454968 10.8786 0.804109Z" fill="#5270FF"/>
<path fill-rule="evenodd" clip-rule="evenodd" d="M25.5274 12.9997C25.5274 19.8437 19.9793 25.3918 13.1353 25.3918C6.29132 25.3918 0.743164 19.8437 0.743164 12.9997C0.743164 6.1557 6.29132 0.607556 13.1353 0.607556C19.9793 0.607556 25.5274 6.1557 25.5274 12.9997ZM24.7045 12.9997C24.7045 19.3892 19.5248 24.5689 13.1353 24.5689C11.9205 24.5689 10.7494 24.3817 9.64939 24.0345H11.2178V2.89705L7.22609 3.05136C8.95562 2.02182 10.9764 1.43048 13.1353 1.43048C19.5248 1.43048 24.7045 6.6102 24.7045 12.9997Z" fill="#5270FF"/>
<path d="M16.4169 5.32551C17.5429 5.32551 18.6689 5.32551 19.7949 5.32551C20.7288 5.33423 21.1478 5.7532 21.174 6.6697C21.1915 7.29816 21.2002 7.92661 21.174 8.55507C21.1478 9.33191 20.7288 9.76833 19.952 9.77706C18.0666 9.79452 16.1813 9.77706 14.2959 9.78579C13.9555 9.78579 13.7809 9.64613 13.7111 9.31445C13.458 8.10118 13.0914 6.92283 12.5764 5.79685C12.4105 5.42152 12.4891 5.29932 12.8993 5.30805C14.069 5.32551 15.2386 5.30805 16.4082 5.30805L16.4169 5.32551Z" fill="white"/>
<path d="M16.1114 16.3671C15.5266 16.3671 14.9418 16.3584 14.357 16.3671C13.9642 16.3758 13.7984 16.2449 13.8769 15.8259C14.0951 14.6912 14.1475 13.5478 14.0951 12.3956C14.0777 12.0115 14.2173 11.8457 14.6101 11.8457C15.7099 11.8632 16.8184 11.8282 17.9182 11.8632C18.7562 11.8893 19.1664 12.3432 19.1839 13.1899C19.1926 13.7922 19.1926 14.4032 19.1839 15.0054C19.1664 15.8696 18.73 16.3147 17.8571 16.3409C17.2723 16.3584 16.6875 16.3409 16.1027 16.3409L16.1114 16.3671Z" fill="white"/>
<path d="M7.55615 13.6433C7.55615 10.6625 7.55615 7.68179 7.55615 4.70106C7.55615 4.36599 7.63119 4.29269 7.96452 4.29269C8.3502 4.29269 8.73762 4.29793 9.1233 4.2892C9.28037 4.28571 9.38159 4.34679 9.47059 4.4707C10.6782 6.16176 11.481 8.02559 11.8754 10.0657C12.3937 12.7462 12.1878 15.3902 11.4636 18.0061C10.9941 19.6989 10.3013 21.2993 9.45314 22.8333C9.39206 22.9432 9.30655 22.9973 9.17915 22.9973C8.73588 22.9956 8.29435 22.9973 7.85108 22.9956C7.6661 22.9956 7.56837 22.8943 7.5579 22.7093C7.55441 22.6587 7.5579 22.6064 7.5579 22.5558C7.5579 19.5855 7.5579 16.6153 7.5579 13.645L7.55615 13.6433Z" fill="white"/>
<path d="M33.6421 20.2596V5.90429H36.0005V20.2596H33.6421ZM35.2622 14.1073V11.954H42.5629V14.1073H35.2622ZM35.2622 8.05758V5.90429H42.9115V8.05758H35.2622Z" fill="#5270FF"/>
<path d="M49.1628 20.4647C48.1784 20.4647 47.2898 20.2459 46.4968 19.8084C45.7175 19.3572 45.0955 18.742 44.6306 17.9627C44.1794 17.1834 43.9539 16.3085 43.9539 15.3378C43.9539 14.3671 44.1794 13.4989 44.6306 12.7333C45.0818 11.954 45.6902 11.3388 46.4558 10.8876C47.2351 10.4365 48.0964 10.2109 49.0397 10.2109C49.9557 10.2109 50.7624 10.4228 51.4596 10.8466C52.1706 11.2704 52.7243 11.8515 53.1207 12.5898C53.5309 13.328 53.736 14.1688 53.736 15.1122C53.736 15.2762 53.7223 15.4471 53.695 15.6249C53.6813 15.7889 53.6539 15.9735 53.6129 16.1786H45.5329V14.3329H52.444L51.6032 15.0712C51.5758 14.4696 51.4596 13.9638 51.2546 13.5536C51.0495 13.1435 50.7555 12.829 50.3727 12.6103C50.0036 12.3915 49.5456 12.2821 48.9987 12.2821C48.4245 12.2821 47.9255 12.4052 47.5017 12.6513C47.0779 12.8974 46.7497 13.246 46.5173 13.6972C46.2849 14.1347 46.1687 14.661 46.1687 15.2762C46.1687 15.8915 46.2917 16.4315 46.5378 16.8963C46.7839 17.3612 47.1325 17.7235 47.5837 17.9832C48.0349 18.2293 48.5544 18.3524 49.1423 18.3524C49.6481 18.3524 50.113 18.2635 50.5368 18.0858C50.9743 17.908 51.3434 17.6483 51.6442 17.3065L53.0797 18.7625C52.6012 19.3231 52.0202 19.7469 51.3366 20.034C50.653 20.3211 49.9284 20.4647 49.1628 20.4647Z" fill="#5270FF"/>
<path d="M60.1175 20.4647C59.1331 20.4647 58.2445 20.2459 57.4515 19.8084C56.6722 19.3572 56.0502 18.742 55.5853 17.9627C55.1342 17.1834 54.9086 16.3085 54.9086 15.3378C54.9086 14.3671 55.1342 13.4989 55.5853 12.7333C56.0365 11.954 56.6449 11.3388 57.4105 10.8876C58.1898 10.4365 59.0511 10.2109 59.9945 10.2109C60.9105 10.2109 61.7171 10.4228 62.4144 10.8466C63.1253 11.2704 63.679 11.8515 64.0755 12.5898C64.4856 13.328 64.6907 14.1688 64.6907 15.1122C64.6907 15.2762 64.677 15.4471 64.6497 15.6249C64.636 15.7889 64.6087 15.9735 64.5676 16.1786H56.4877V14.3329H63.3987L62.5579 15.0712C62.5306 14.4696 62.4144 13.9638 62.2093 13.5536C62.0042 13.1435 61.7103 12.829 61.3275 12.6103C60.9583 12.3915 60.5003 12.2821 59.9534 12.2821C59.3792 12.2821 58.8802 12.4052 58.4564 12.6513C58.0326 12.8974 57.7045 13.246 57.472 13.6972C57.2396 14.1347 57.1234 14.661 57.1234 15.2762C57.1234 15.8915 57.2464 16.4315 57.4925 16.8963C57.7386 17.3612 58.0873 17.7235 58.5384 17.9832C58.9896 18.2293 59.5091 18.3524 60.097 18.3524C60.6029 18.3524 61.0677 18.2635 61.4915 18.0858C61.929 17.908 62.2981 17.6483 62.5989 17.3065L64.0345 18.7625C63.5559 19.3231 62.9749 19.7469 62.2913 20.034C61.6077 20.3211 60.8831 20.4647 60.1175 20.4647Z" fill="#5270FF"/>
<path d="M70.6211 20.4647C69.7324 20.4647 68.9258 20.2391 68.2012 19.7879C67.4902 19.3367 66.9229 18.7283 66.499 17.9627C66.0889 17.1834 65.8838 16.3153 65.8838 15.3583C65.8838 14.3876 66.0889 13.5194 66.499 12.7538C66.9229 11.9745 67.4902 11.3593 68.2012 10.9081C68.9258 10.4433 69.7324 10.2109 70.6211 10.2109C71.373 10.2109 72.0361 10.3749 72.6103 10.7031C73.1982 11.0175 73.663 11.455 74.0048 12.0155C74.3466 12.5761 74.5175 13.2118 74.5175 13.9227V16.7528C74.5175 17.4637 74.3466 18.0994 74.0048 18.66C73.6767 19.2205 73.2187 19.6649 72.6308 19.993C72.0429 20.3074 71.373 20.4647 70.6211 20.4647ZM70.9902 18.3319C71.5507 18.3319 72.0361 18.2088 72.4462 17.9627C72.8701 17.703 73.1982 17.3475 73.4306 16.8963C73.663 16.4452 73.7792 15.9256 73.7792 15.3378C73.7792 14.7499 73.663 14.2304 73.4306 13.7792C73.1982 13.328 72.8701 12.9794 72.4462 12.7333C72.0361 12.4735 71.5576 12.3437 71.0107 12.3437C70.4502 12.3437 69.958 12.4735 69.5342 12.7333C69.124 12.9794 68.7959 13.328 68.5498 13.7792C68.3174 14.2304 68.2012 14.7499 68.2012 15.3378C68.2012 15.9256 68.3174 16.4452 68.5498 16.8963C68.7959 17.3475 69.124 17.703 69.5342 17.9627C69.958 18.2088 70.4433 18.3319 70.9902 18.3319ZM75.8915 20.2596H73.6357V17.6141L74.0253 15.2147L73.6357 12.8358V5.49414H75.8915V20.2596Z" fill="#5270FF"/>
<path d="M83.6655 20.4647C82.9135 20.4647 82.2436 20.3074 81.6557 19.993C81.0678 19.6649 80.603 19.2205 80.2612 18.66C79.9331 18.0994 79.769 17.4637 79.769 16.7528V13.9227C79.769 13.2118 79.9399 12.5761 80.2817 12.0155C80.6235 11.455 81.0884 11.0175 81.6762 10.7031C82.2641 10.3749 82.9272 10.2109 83.6655 10.2109C84.5541 10.2109 85.3539 10.4433 86.0649 10.9081C86.7895 11.3593 87.3568 11.9745 87.767 12.7538C88.1908 13.5194 88.4027 14.3876 88.4027 15.3583C88.4027 16.3153 88.1908 17.1834 87.767 17.9627C87.3568 18.7283 86.7895 19.3367 86.0649 19.7879C85.3539 20.2391 84.5541 20.4647 83.6655 20.4647ZM78.395 20.2596V5.49414H80.6509V12.8358L80.2612 15.2147L80.6509 17.6141V20.2596H78.395ZM83.2963 18.3319C83.8432 18.3319 84.3217 18.2088 84.7319 17.9627C85.1557 17.703 85.4838 17.3475 85.7162 16.8963C85.9623 16.4452 86.0854 15.9256 86.0854 15.3378C86.0854 14.7499 85.9623 14.2304 85.7162 13.7792C85.4838 13.328 85.1557 12.9794 84.7319 12.7333C84.3217 12.4735 83.8432 12.3437 83.2963 12.3437C82.7495 12.3437 82.2641 12.4735 81.8403 12.7333C81.4165 12.9794 81.0884 13.328 80.8559 13.7792C80.6235 14.2304 80.5073 14.7499 80.5073 15.3378C80.5073 15.9256 80.6235 16.4452 80.8559 16.8963C81.0884 17.3475 81.4165 17.703 81.8403 17.9627C82.2641 18.2088 82.7495 18.3319 83.2963 18.3319Z" fill="#5270FF"/>
<path d="M106.119 20.4647C105.149 20.4647 104.267 20.2391 103.474 19.7879C102.695 19.3367 102.079 18.7215 101.628 17.9422C101.177 17.1629 100.951 16.2948 100.951 15.3378C100.951 14.3671 101.177 13.4989 101.628 12.7333C102.079 11.954 102.695 11.3388 103.474 10.8876C104.267 10.4365 105.149 10.2109 106.119 10.2109C106.885 10.2109 107.596 10.3613 108.252 10.662C108.922 10.9491 109.489 11.3661 109.954 11.913L108.478 13.4101C108.191 13.0683 107.842 12.8153 107.432 12.6513C107.035 12.4735 106.598 12.3847 106.119 12.3847C105.559 12.3847 105.06 12.5146 104.622 12.7743C104.198 13.0204 103.863 13.3622 103.617 13.7997C103.385 14.2372 103.269 14.7499 103.269 15.3378C103.269 15.912 103.385 16.4247 103.617 16.8758C103.863 17.3133 104.198 17.662 104.622 17.9217C105.06 18.1678 105.559 18.2909 106.119 18.2909C106.598 18.2909 107.035 18.2088 107.432 18.0448C107.842 17.867 108.191 17.6073 108.478 17.2655L109.954 18.7625C109.489 19.3094 108.922 19.7332 108.252 20.034C107.596 20.3211 106.885 20.4647 106.119 20.4647Z" fill="#5270FF"/>
<path d="M117.835 20.2596L113.672 15.2352L117.815 10.416H120.501L115.744 15.8299L115.846 14.538L120.706 20.2596H117.835ZM111.581 20.2596V5.49414H113.836V20.2596H111.581Z" fill="#5270FF"/>
<path d="M125.699 20.2596V5.6582H129.8V20.2596H125.699ZM134.517 20.2596V5.6582H138.618V20.2596H134.517ZM127.934 14.5175V11.1132H136.116V14.5175H127.934Z" fill="#5270FF"/>
<path d="M147.171 20.5057C145.886 20.5057 144.765 20.2459 143.808 19.7264C142.851 19.1932 142.106 18.4617 141.572 17.5321C141.039 16.6024 140.773 15.536 140.773 14.3329V5.6582H144.874V14.702C144.874 15.1669 144.977 15.5633 145.182 15.8915C145.387 16.2196 145.66 16.4725 146.002 16.6502C146.357 16.8143 146.747 16.8963 147.171 16.8963C147.608 16.8963 147.991 16.8143 148.319 16.6502C148.661 16.4725 148.928 16.2264 149.119 15.912C149.311 15.5839 149.406 15.1874 149.406 14.7225V5.6582H153.528V14.3534C153.528 15.5565 153.262 16.6229 152.729 17.5526C152.209 18.4686 151.471 19.1932 150.514 19.7264C149.57 20.2459 148.456 20.5057 147.171 20.5057Z" fill="#5270FF"/>
<path d="M159.001 20.2596V17.3065H161.688C162.207 17.3065 162.624 17.1698 162.939 16.8963C163.253 16.6092 163.41 16.2196 163.41 15.7274C163.41 15.3993 163.335 15.119 163.185 14.8866C163.048 14.6405 162.85 14.4559 162.59 14.3329C162.344 14.2098 162.043 14.1483 161.688 14.1483H159.001V11.3183H161.503C161.941 11.3183 162.303 11.2089 162.59 10.9902C162.877 10.7714 163.021 10.4296 163.021 9.96479C163.021 9.49995 162.877 9.15816 162.59 8.93941C162.303 8.72066 161.941 8.61129 161.503 8.61129H159.001V5.6582H162.651C163.54 5.6582 164.313 5.8291 164.969 6.17089C165.639 6.49901 166.158 6.95701 166.527 7.5449C166.897 8.11911 167.081 8.78218 167.081 9.53413C167.081 10.5732 166.712 11.4208 165.974 12.0771C165.235 12.7333 164.155 13.1093 162.733 13.205L162.692 11.79C164.237 11.8857 165.42 12.3095 166.24 13.0614C167.061 13.8134 167.471 14.7772 167.471 15.953C167.471 16.8006 167.259 17.5526 166.835 18.2088C166.411 18.8514 165.816 19.3572 165.051 19.7264C164.299 20.0818 163.417 20.2596 162.405 20.2596H159.001ZM155.679 20.2596V5.6582H159.698V20.2596H155.679Z" fill="#5270FF"/>
<path d="M89.6002 15.1268C89.4403 17.5754 91.2495 19.9006 93.6255 20.3801C94.8244 20.6199 95.9579 20.4746 97.0478 19.9514C97.2803 19.8424 97.5056 19.8134 97.7599 19.8715C98.1959 19.9732 98.6245 20.0677 99.0605 20.1621C99.4819 20.2566 99.6273 20.1185 99.5401 19.6898C99.4529 19.2539 99.3512 18.8179 99.2494 18.3892C99.1913 18.1277 99.2204 17.8806 99.3439 17.6336C100.906 14.4729 98.9007 10.7236 95.3984 10.2586C93.2332 9.96793 91.0752 11.116 90.1088 13.0778C89.7891 13.7317 89.5929 14.422 89.5929 15.1341L89.6002 15.1268Z" fill="#5270FF"/>
</svg>
