<svg width="241" height="28" viewBox="0 0 241 28" fill="none" xmlns="http://www.w3.org/2000/svg">
<g id="Group 50">
<g id="Feedb ck HUB">
<path d="M0.0593262 26.5739V0.803674H4.29301V26.5739H0.0593262ZM2.96768 15.5295V11.664H16.0737V15.5295H2.96768ZM2.96768 4.66921V0.803674H16.6995V4.66921H2.96768Z" fill="#5270FF"/>
<path d="M27.9217 26.942C26.1546 26.942 24.5593 26.5494 23.1358 25.764C21.7368 24.9541 20.6201 23.8496 19.7856 22.4507C18.9757 21.0517 18.5708 19.4809 18.5708 17.7384C18.5708 15.9958 18.9757 14.4373 19.7856 13.0629C20.5956 11.664 21.6877 10.5595 23.0621 9.74962C24.4611 8.9397 26.0073 8.53474 27.7008 8.53474C29.3452 8.53474 30.7932 8.91516 32.0449 9.67599C33.3211 10.4368 34.3151 11.4799 35.0269 12.8052C35.7632 14.1306 36.1313 15.64 36.1313 17.3334C36.1313 17.6279 36.1068 17.9347 36.0577 18.2538C36.0331 18.5483 35.9841 18.8796 35.9104 19.2478H21.4055V15.9345H33.812L32.3026 17.2598C32.2535 16.1799 32.0449 15.2718 31.6768 14.5355C31.3086 13.7992 30.7809 13.2347 30.0937 12.842C29.4311 12.4494 28.6089 12.253 27.6271 12.253C26.5963 12.253 25.7005 12.4739 24.9397 12.9157C24.1788 13.3575 23.5898 13.9833 23.1726 14.7932C22.7553 15.5786 22.5467 16.5235 22.5467 17.6279C22.5467 18.7324 22.7676 19.7018 23.2094 20.5363C23.6512 21.3708 24.277 22.0212 25.0869 22.4875C25.8969 22.9292 26.8295 23.1501 27.8848 23.1501C28.7929 23.1501 29.6274 22.9906 30.3882 22.6715C31.1736 22.3525 31.8363 21.8862 32.3762 21.2726L34.9533 23.8864C34.0942 24.8927 33.0512 25.6535 31.824 26.1689C30.5969 26.6843 29.2961 26.942 27.9217 26.942Z" fill="#5270FF"/>
<path d="M47.5873 26.942C45.8202 26.942 44.2249 26.5494 42.8014 25.764C41.4024 24.9541 40.2857 23.8496 39.4513 22.4507C38.6413 21.0517 38.2364 19.4809 38.2364 17.7384C38.2364 15.9958 38.6413 14.4373 39.4513 13.0629C40.2612 11.664 41.3533 10.5595 42.7278 9.74962C44.1267 8.9397 45.6729 8.53474 47.3664 8.53474C49.0108 8.53474 50.4588 8.91516 51.7105 9.67599C52.9868 10.4368 53.9808 11.4799 54.6925 12.8052C55.4288 14.1306 55.7969 15.64 55.7969 17.3334C55.7969 17.6279 55.7724 17.9347 55.7233 18.2538C55.6988 18.5483 55.6497 18.8796 55.5761 19.2478H41.0711V15.9345H53.4776L51.9682 17.2598C51.9191 16.1799 51.7105 15.2718 51.3424 14.5355C50.9742 13.7992 50.4465 13.2347 49.7593 12.842C49.0967 12.4494 48.2745 12.253 47.2928 12.253C46.262 12.253 45.3661 12.4739 44.6053 12.9157C43.8445 13.3575 43.2554 13.9833 42.8382 14.7932C42.421 15.5786 42.2123 16.5235 42.2123 17.6279C42.2123 18.7324 42.4332 19.7018 42.875 20.5363C43.3168 21.3708 43.9426 22.0212 44.7526 22.4875C45.5625 22.9292 46.4951 23.1501 47.5505 23.1501C48.4586 23.1501 49.293 22.9906 50.0539 22.6715C50.8392 22.3525 51.5019 21.8862 52.0419 21.2726L54.6189 23.8864C53.7599 24.8927 52.7168 25.6535 51.4896 26.1689C50.2625 26.6843 48.9617 26.942 47.5873 26.942Z" fill="#5270FF"/>
<path d="M66.443 26.942C64.8477 26.942 63.3996 26.5371 62.0989 25.7272C60.8226 24.9172 59.8041 23.8251 59.0432 22.4507C58.3069 21.0517 57.9388 19.4932 57.9388 17.7752C57.9388 16.0326 58.3069 14.4742 59.0432 13.0998C59.8041 11.7008 60.8226 10.5964 62.0989 9.78644C63.3996 8.95197 64.8477 8.53474 66.443 8.53474C67.7928 8.53474 68.9832 8.82926 70.014 9.41829C71.0693 9.98278 71.9038 10.7682 72.5174 11.7744C73.131 12.7807 73.4378 13.9219 73.4378 15.1982V20.2786C73.4378 21.5548 73.131 22.6961 72.5174 23.7024C71.9284 24.7086 71.1062 25.5063 70.0508 26.0953C68.9955 26.6598 67.7928 26.942 66.443 26.942ZM67.1056 23.1133C68.1119 23.1133 68.9832 22.8924 69.7195 22.4507C70.4803 21.9843 71.0693 21.3462 71.4866 20.5363C71.9038 19.7264 72.1124 18.7937 72.1124 17.7384C72.1124 16.683 71.9038 15.7504 71.4866 14.9405C71.0693 14.1306 70.4803 13.5047 69.7195 13.0629C68.9832 12.5966 68.1242 12.3635 67.1425 12.3635C66.1362 12.3635 65.2526 12.5966 64.4918 13.0629C63.7555 13.5047 63.1665 14.1306 62.7247 14.9405C62.3075 15.7504 62.0989 16.683 62.0989 17.7384C62.0989 18.7937 62.3075 19.7264 62.7247 20.5363C63.1665 21.3462 63.7555 21.9843 64.4918 22.4507C65.2526 22.8924 66.1239 23.1133 67.1056 23.1133ZM75.9043 26.5739H71.8547V21.8248L72.5542 17.5175L71.8547 13.247V0.0673828H75.9043V26.5739Z" fill="#5270FF"/>
<path d="M89.8599 26.942C88.5101 26.942 87.3075 26.6598 86.2521 26.0953C85.1968 25.5063 84.3623 24.7086 83.7487 23.7024C83.1597 22.6961 82.8652 21.5548 82.8652 20.2786V15.1982C82.8652 13.9219 83.172 12.7807 83.7855 11.7744C84.3991 10.7682 85.2336 9.98278 86.2889 9.41829C87.3443 8.82926 88.5346 8.53474 89.8599 8.53474C91.4552 8.53474 92.891 8.95197 94.1673 9.78644C95.468 10.5964 96.4866 11.7008 97.2229 13.0998C97.9837 14.4742 98.3641 16.0326 98.3641 17.7752C98.3641 19.4932 97.9837 21.0517 97.2229 22.4507C96.4866 23.8251 95.468 24.9172 94.1673 25.7272C92.891 26.5371 91.4552 26.942 89.8599 26.942ZM80.3986 26.5739V0.0673828H84.4482V13.247L83.7487 17.5175L84.4482 21.8248V26.5739H80.3986ZM89.1973 23.1133C90.179 23.1133 91.038 22.8924 91.7743 22.4507C92.5351 21.9843 93.1242 21.3462 93.5414 20.5363C93.9832 19.7264 94.2041 18.7937 94.2041 17.7384C94.2041 16.683 93.9832 15.7504 93.5414 14.9405C93.1242 14.1306 92.5351 13.5047 91.7743 13.0629C91.038 12.5966 90.179 12.3635 89.1973 12.3635C88.2156 12.3635 87.3443 12.5966 86.5834 13.0629C85.8226 13.5047 85.2336 14.1306 84.8163 14.9405C84.3991 15.7504 84.1905 16.683 84.1905 17.7384C84.1905 18.7937 84.3991 19.7264 84.8163 20.5363C85.2336 21.3462 85.8226 21.9843 86.5834 22.4507C87.3443 22.8924 88.2156 23.1133 89.1973 23.1133Z" fill="#5270FF"/>
<path d="M130.169 26.942C128.426 26.942 126.843 26.5371 125.419 25.7272C124.02 24.9172 122.916 23.8128 122.106 22.4138C121.296 21.0149 120.891 19.4564 120.891 17.7384C120.891 15.9958 121.296 14.4373 122.106 13.0629C122.916 11.664 124.02 10.5595 125.419 9.74962C126.843 8.9397 128.426 8.53474 130.169 8.53474C131.543 8.53474 132.819 8.80472 133.997 9.34466C135.2 9.86007 136.218 10.6086 137.053 11.5904L134.402 14.2778C133.887 13.6642 133.261 13.2102 132.525 12.9157C131.813 12.5966 131.028 12.4371 130.169 12.4371C129.162 12.4371 128.266 12.6702 127.481 13.1366C126.72 13.5783 126.119 14.1919 125.677 14.9773C125.26 15.7627 125.051 16.683 125.051 17.7384C125.051 18.7692 125.26 19.6896 125.677 20.4995C126.119 21.2849 126.72 21.9107 127.481 22.377C128.266 22.8188 129.162 23.0397 130.169 23.0397C131.028 23.0397 131.813 22.8924 132.525 22.5979C133.261 22.2789 133.887 21.8125 134.402 21.199L137.053 23.8864C136.218 24.8682 135.2 25.629 133.997 26.1689C132.819 26.6843 131.543 26.942 130.169 26.942Z" fill="#5270FF"/>
<path d="M151.201 26.5739L143.728 17.5543L151.164 8.90289H155.987L147.446 18.6219L147.63 16.3026L156.355 26.5739H151.201ZM139.972 26.5739V0.0673828H144.022V26.5739H139.972Z" fill="#5270FF"/>
<path d="M165.317 26.5739V0.3619H172.68V26.5739H165.317ZM181.147 26.5739V0.3619H188.51V26.5739H181.147ZM169.329 16.2658V10.1546H184.019V16.2658H169.329Z" fill="#5270FF"/>
<path d="M203.863 27.0157C201.556 27.0157 199.544 26.5494 197.826 25.6167C196.108 24.6595 194.77 23.3465 193.813 21.6776C192.856 20.0086 192.377 18.0943 192.377 15.9345V0.3619H199.74V16.5971C199.74 17.4316 199.924 18.1434 200.292 18.7324C200.66 19.3214 201.151 19.7755 201.765 20.0945C202.403 20.389 203.102 20.5363 203.863 20.5363C204.649 20.5363 205.336 20.389 205.925 20.0945C206.538 19.7755 207.017 19.3337 207.361 18.7692C207.704 18.1802 207.876 17.4684 207.876 16.634V0.3619H215.276V15.9713C215.276 18.1311 214.797 20.0454 213.84 21.7144C212.907 23.3588 211.582 24.6595 209.864 25.6167C208.171 26.5494 206.17 27.0157 203.863 27.0157Z" fill="#5270FF"/>
<path d="M225.1 26.5739V21.2726H229.923C230.856 21.2726 231.604 21.0272 232.169 20.5363C232.733 20.0209 233.016 19.3214 233.016 18.4379C233.016 17.8488 232.881 17.3457 232.611 16.9285C232.365 16.4867 232.009 16.1554 231.543 15.9345C231.101 15.7136 230.561 15.6031 229.923 15.6031H225.1V10.5227H229.592C230.377 10.5227 231.028 10.3264 231.543 9.93369C232.058 9.54101 232.316 8.92743 232.316 8.09297C232.316 7.2585 232.058 6.64492 231.543 6.25223C231.028 5.85955 230.377 5.6632 229.592 5.6632H225.1V0.3619H231.653C233.249 0.3619 234.635 0.668688 235.814 1.28226C237.016 1.8713 237.949 2.69349 238.611 3.74884C239.274 4.77965 239.605 5.96999 239.605 7.31986C239.605 9.18513 238.943 10.7068 237.617 11.8849C236.292 13.0629 234.353 13.7379 231.801 13.9097L231.727 11.3695C234.5 11.5413 236.623 12.3021 238.096 13.652C239.569 15.0018 240.305 16.7321 240.305 18.8428C240.305 20.3645 239.924 21.7144 239.164 22.8924C238.403 24.046 237.335 24.9541 235.961 25.6167C234.611 26.2548 233.028 26.5739 231.212 26.5739H225.1ZM219.136 26.5739V0.3619H226.352V26.5739H219.136Z" fill="#5270FF"/>
</g>
<path id="Vector" d="M100.514 17.3596C100.227 21.7553 103.475 25.9293 107.74 26.7902C109.892 27.2207 111.927 26.9598 113.884 26.0206C114.301 25.825 114.705 25.7728 115.162 25.8772C115.944 26.0598 116.714 26.2293 117.497 26.3989C118.253 26.5685 118.514 26.3206 118.358 25.5511C118.201 24.7684 118.018 23.9858 117.836 23.2162C117.731 22.7467 117.784 22.3032 118.005 21.8597C120.81 16.1857 117.21 9.45509 110.923 8.62029C107.036 8.09854 103.162 10.1594 101.427 13.6813C100.853 14.8552 100.501 16.0944 100.501 17.3726L100.514 17.3596Z" fill="#5270FF"/>
</g>
</svg>
