<svg width="232" height="35" viewBox="0 0 232 35" fill="none" xmlns="http://www.w3.org/2000/svg">
<path d="M14.2396 1.23914C11.5163 1.8676 11.2021 1.99562 9.37489 3.27581C8.89773 3.61331 8.79298 3.8228 9.24687 4.32324C16.1948 11.9346 15.4849 22.758 10.1314 31.5448C9.75895 32.1499 9.87533 32.3478 10.4689 32.5922C16.4741 35.0595 22.1186 34.4077 27.3558 30.5672C28.217 29.9271 29.0898 29.6128 30.1605 29.6594C31.464 29.7176 32.7558 29.6827 34.0593 29.6827C35.293 29.6827 35.7236 29.0077 35.2231 27.8671C34.6761 26.6218 34.1408 25.3766 33.5472 24.1546C33.1166 23.2701 33.0701 22.4205 33.2912 21.4662C35.3395 12.7725 30.5097 4.29996 22.0022 1.66975C19.2556 0.831805 16.4741 0.773615 14.2396 1.23914Z" fill="#5270FF"/>
<path fill-rule="evenodd" clip-rule="evenodd" d="M33.7714 17.5C33.7714 26.6253 26.3739 34.0229 17.2485 34.0229C8.12315 34.0229 0.725586 26.6253 0.725586 17.5C0.725586 8.37463 8.12315 0.977068 17.2485 0.977068C26.3739 0.977068 33.7714 8.37463 33.7714 17.5ZM32.6742 17.5C32.6742 26.0194 25.7679 32.9257 17.2485 32.9257C15.6288 32.9257 14.0674 32.676 12.6006 32.2131H14.6918V4.02973L9.36953 4.23549C11.6756 2.86276 14.37 2.07431 17.2485 2.07431C25.7679 2.07431 32.6742 8.98062 32.6742 17.5Z" fill="#5270FF"/>
<path d="M21.6241 7.26799C23.1255 7.26799 24.6268 7.26799 26.1281 7.26799C27.3734 7.27963 27.932 7.83826 27.9669 9.06026C27.9902 9.8982 28.0018 10.7361 27.9669 11.5741C27.932 12.6099 27.3734 13.1918 26.3376 13.2034C23.8237 13.2267 21.3099 13.2034 18.7961 13.2151C18.3422 13.2151 18.1094 13.0289 18.0163 12.5866C17.6788 10.9689 17.19 9.39777 16.5034 7.89645C16.2823 7.39601 16.387 7.23308 16.934 7.24472C18.4935 7.26799 20.053 7.24472 21.6125 7.24472L21.6241 7.26799Z" fill="#F9F9F9"/>
<path d="M21.2169 21.9905C20.4371 21.9905 19.6574 21.9788 18.8776 21.9905C18.3539 22.0021 18.1328 21.8275 18.2375 21.2689C18.5285 19.7559 18.5983 18.2313 18.5285 16.6951C18.5052 16.183 18.6914 15.9619 19.2151 15.9619C20.6815 15.9852 22.1595 15.9386 23.6259 15.9852C24.7432 16.0201 25.2902 16.6253 25.3135 17.7542C25.3251 18.5572 25.3251 19.3719 25.3135 20.1749C25.2902 21.3271 24.7083 21.9206 23.5445 21.9555C22.7647 21.9788 21.985 21.9555 21.2052 21.9555L21.2169 21.9905Z" fill="#F9F9F9"/>
<path d="M9.80957 18.3571C9.80957 14.3827 9.80957 10.4084 9.80957 6.4341C9.80957 5.98734 9.90963 5.88961 10.3541 5.88961C10.8683 5.88961 11.3849 5.89659 11.8991 5.88495C12.1085 5.8803 12.2435 5.96174 12.3622 6.12695C13.9724 8.3817 15.0427 10.8668 15.5686 13.587C16.2597 17.1611 15.9851 20.6863 15.0195 24.1743C14.3935 26.4314 13.4698 28.5651 12.3389 30.6105C12.2575 30.7571 12.1434 30.8292 11.9736 30.8292C11.3825 30.8269 10.7938 30.8292 10.2028 30.8269C9.95616 30.8269 9.82586 30.6919 9.8119 30.4453C9.80724 30.3778 9.8119 30.308 9.8119 30.2405C9.8119 26.2801 9.8119 22.3198 9.8119 18.3594L9.80957 18.3571Z" fill="#F9F9F9"/>
<path d="M44.5908 27.1795V8.03906H47.7353V27.1795H44.5908ZM46.751 18.9765V16.1054H56.4853V18.9765H46.751ZM46.751 10.9101V8.03906H56.9501V10.9101H46.751Z" fill="#5270FF"/>
<path d="M65.2852 27.453C63.9727 27.453 62.7878 27.1613 61.7305 26.578C60.6915 25.9764 59.862 25.1561 59.2423 24.117C58.6407 23.078 58.3399 21.9113 58.3399 20.6171C58.3399 19.3228 58.6407 18.1653 59.2423 17.1444C59.8438 16.1054 60.655 15.2851 61.6758 14.6835C62.7149 14.082 63.8633 13.7812 65.1211 13.7812C66.3425 13.7812 67.418 14.0637 68.3476 14.6288C69.2956 15.1939 70.0338 15.9687 70.5625 16.953C71.1093 17.9374 71.3828 19.0585 71.3828 20.3163C71.3828 20.535 71.3645 20.7629 71.3281 20.9999C71.3099 21.2186 71.2734 21.4647 71.2187 21.7382H60.4454V19.2772H69.6601L68.539 20.2616C68.5026 19.4595 68.3476 18.7851 68.0742 18.2382C67.8008 17.6913 67.4089 17.2721 66.8984 16.9804C66.4063 16.6887 65.7956 16.5429 65.0664 16.5429C64.3008 16.5429 63.6354 16.707 63.0703 17.0351C62.5052 17.3632 62.0677 17.828 61.7579 18.4296C61.448 19.0129 61.293 19.7147 61.293 20.535C61.293 21.3553 61.4571 22.0754 61.7852 22.6952C62.1133 23.315 62.5782 23.798 63.1797 24.1444C63.7813 24.4725 64.474 24.6366 65.2578 24.6366C65.9323 24.6366 66.5521 24.5181 67.1172 24.2811C67.7005 24.0441 68.1927 23.6978 68.5937 23.2421L70.5078 25.1834C69.8698 25.9308 69.095 26.4959 68.1836 26.8787C67.2721 27.2615 66.306 27.453 65.2852 27.453Z" fill="#5270FF"/>
<path d="M79.8915 27.453C78.579 27.453 77.3942 27.1613 76.3369 26.578C75.2978 25.9764 74.4684 25.1561 73.8486 24.117C73.247 23.078 72.9463 21.9113 72.9463 20.6171C72.9463 19.3228 73.247 18.1653 73.8486 17.1444C74.4502 16.1054 75.2614 15.2851 76.2822 14.6835C77.3212 14.082 78.4697 13.7812 79.7275 13.7812C80.9488 13.7812 82.0243 14.0637 82.954 14.6288C83.9019 15.1939 84.6402 15.9687 85.1688 16.953C85.7157 17.9374 85.9891 19.0585 85.9891 20.3163C85.9891 20.535 85.9709 20.7629 85.9344 20.9999C85.9162 21.2186 85.8798 21.4647 85.8251 21.7382H75.0517V19.2772H84.2665L83.1454 20.2616C83.1089 19.4595 82.954 18.7851 82.6806 18.2382C82.4071 17.6913 82.0152 17.2721 81.5048 16.9804C81.0126 16.6887 80.4019 16.5429 79.6728 16.5429C78.9072 16.5429 78.2418 16.707 77.6767 17.0351C77.1116 17.3632 76.6741 17.828 76.3642 18.4296C76.0543 19.0129 75.8994 19.7147 75.8994 20.535C75.8994 21.3553 76.0634 22.0754 76.3916 22.6952C76.7197 23.315 77.1845 23.798 77.7861 24.1444C78.3876 24.4725 79.0803 24.6366 79.8642 24.6366C80.5387 24.6366 81.1584 24.5181 81.7235 24.2811C82.3069 24.0441 82.7991 23.6978 83.2001 23.2421L85.1141 25.1834C84.4761 25.9308 83.7014 26.4959 82.7899 26.8787C81.8785 27.2615 80.9123 27.453 79.8915 27.453Z" fill="#5270FF"/>
<path d="M93.8963 27.453C92.7114 27.453 91.6359 27.1522 90.6698 26.5506C89.7219 25.9491 88.9654 25.1379 88.4003 24.117C87.8534 23.078 87.58 21.9204 87.58 20.6444C87.58 19.3502 87.8534 18.1926 88.4003 17.1718C88.9654 16.1327 89.7219 15.3124 90.6698 14.7109C91.6359 14.0911 92.7114 13.7812 93.8963 13.7812C94.8989 13.7812 95.783 13.9999 96.5486 14.4374C97.3325 14.8567 97.9523 15.44 98.408 16.1874C98.8637 16.9348 99.0916 17.7825 99.0916 18.7304V22.5038C99.0916 23.4517 98.8637 24.2993 98.408 25.0467C97.9705 25.7941 97.3598 26.3866 96.576 26.8241C95.7921 27.2433 94.8989 27.453 93.8963 27.453ZM94.3885 24.6092C95.1359 24.6092 95.783 24.4452 96.3299 24.117C96.895 23.7707 97.3325 23.2967 97.6424 22.6952C97.9523 22.0936 98.1072 21.4009 98.1072 20.6171C98.1072 19.8332 97.9523 19.1405 97.6424 18.539C97.3325 17.9374 96.895 17.4726 96.3299 17.1444C95.783 16.7981 95.145 16.6249 94.4159 16.6249C93.6685 16.6249 93.0122 16.7981 92.4471 17.1444C91.9002 17.4726 91.4628 17.9374 91.1346 18.539C90.8247 19.1405 90.6698 19.8332 90.6698 20.6171C90.6698 21.4009 90.8247 22.0936 91.1346 22.6952C91.4628 23.2967 91.9002 23.7707 92.4471 24.117C93.0122 24.4452 93.6593 24.6092 94.3885 24.6092ZM100.924 27.1795H97.9158V23.6522L98.4354 20.453L97.9158 17.2812V7.49219H100.924V27.1795Z" fill="#5270FF"/>
<path d="M111.289 27.453C110.286 27.453 109.393 27.2433 108.609 26.8241C107.825 26.3866 107.206 25.7941 106.75 25.0467C106.312 24.2993 106.094 23.4517 106.094 22.5038V18.7304C106.094 17.7825 106.322 16.9348 106.777 16.1874C107.233 15.44 107.853 14.8567 108.637 14.4374C109.42 13.9999 110.305 13.7812 111.289 13.7812C112.474 13.7812 113.54 14.0911 114.488 14.7109C115.454 15.3124 116.211 16.1327 116.758 17.1718C117.323 18.1926 117.605 19.3502 117.605 20.6444C117.605 21.9204 117.323 23.078 116.758 24.117C116.211 25.1379 115.454 25.9491 114.488 26.5506C113.54 27.1522 112.474 27.453 111.289 27.453ZM104.262 27.1795V7.49219H107.269V17.2812L106.75 20.453L107.269 23.6522V27.1795H104.262ZM110.797 24.6092C111.526 24.6092 112.164 24.4452 112.711 24.117C113.276 23.7707 113.713 23.2967 114.023 22.6952C114.351 22.0936 114.515 21.4009 114.515 20.6171C114.515 19.8332 114.351 19.1405 114.023 18.539C113.713 17.9374 113.276 17.4726 112.711 17.1444C112.164 16.7981 111.526 16.6249 110.797 16.6249C110.068 16.6249 109.42 16.7981 108.855 17.1444C108.29 17.4726 107.853 17.9374 107.543 18.539C107.233 19.1405 107.078 19.8332 107.078 20.6171C107.078 21.4009 107.233 22.0936 107.543 22.6952C107.853 23.2967 108.29 23.7707 108.855 24.117C109.42 24.4452 110.068 24.6092 110.797 24.6092Z" fill="#5270FF"/>
<path d="M141.228 27.453C139.933 27.453 138.758 27.1522 137.7 26.5506C136.661 25.9491 135.841 25.1288 135.239 24.0897C134.638 23.0506 134.337 21.8931 134.337 20.6171C134.337 19.3228 134.638 18.1653 135.239 17.1444C135.841 16.1054 136.661 15.2851 137.7 14.6835C138.758 14.082 139.933 13.7812 141.228 13.7812C142.248 13.7812 143.196 13.9817 144.071 14.3828C144.964 14.7656 145.721 15.3215 146.341 16.0507L144.372 18.0468C143.989 17.5911 143.524 17.2538 142.978 17.0351C142.449 16.7981 141.866 16.6796 141.228 16.6796C140.48 16.6796 139.815 16.8528 139.231 17.1991C138.666 17.5273 138.22 17.983 137.892 18.5663C137.582 19.1496 137.427 19.8332 137.427 20.6171C137.427 21.3827 137.582 22.0663 137.892 22.6678C138.22 23.2512 138.666 23.716 139.231 24.0624C139.815 24.3905 140.48 24.5545 141.228 24.5545C141.866 24.5545 142.449 24.4452 142.978 24.2264C143.524 23.9894 143.989 23.6431 144.372 23.1874L146.341 25.1834C145.721 25.9126 144.964 26.4777 144.071 26.8787C143.196 27.2615 142.248 27.453 141.228 27.453Z" fill="#5270FF"/>
<path d="M156.849 27.1795L151.298 20.4804L156.822 14.0546H160.404L154.06 21.2733L154.197 19.5507L160.677 27.1795H156.849ZM148.509 27.1795V7.49219H151.517V27.1795H148.509Z" fill="#5270FF"/>
<path d="M167.333 27.1795V7.71094H172.802V27.1795H167.333ZM179.091 27.1795V7.71094H184.56V27.1795H179.091ZM170.314 19.5233V14.9843H181.224V19.5233H170.314Z" fill="#5270FF"/>
<path d="M195.963 27.5076C194.25 27.5076 192.755 27.1613 191.479 26.4686C190.203 25.7577 189.209 24.7824 188.499 23.5428C187.788 22.3033 187.432 20.8814 187.432 19.2772V7.71094H192.901V19.7694C192.901 20.3892 193.038 20.9179 193.311 21.3553C193.584 21.7928 193.949 22.1301 194.405 22.3671C194.879 22.5858 195.398 22.6952 195.963 22.6952C196.547 22.6952 197.057 22.5858 197.495 22.3671C197.95 22.1301 198.306 21.802 198.561 21.3827C198.816 20.9452 198.944 20.4166 198.944 19.7968V7.71094H204.44V19.3046C204.44 20.9087 204.084 22.3306 203.373 23.5702C202.681 24.7915 201.696 25.7577 200.42 26.4686C199.162 27.1613 197.677 27.5076 195.963 27.5076Z" fill="#5270FF"/>
<path d="M211.737 27.1795V23.2421H215.319C216.012 23.2421 216.568 23.0598 216.987 22.6952C217.406 22.3124 217.616 21.7928 217.616 21.1366C217.616 20.6991 217.515 20.3254 217.315 20.0155C217.133 19.6874 216.868 19.4413 216.522 19.2772C216.194 19.1132 215.793 19.0311 215.319 19.0311H211.737V15.2577H215.073C215.656 15.2577 216.139 15.1119 216.522 14.8202C216.905 14.5286 217.096 14.0729 217.096 13.4531C217.096 12.8333 216.905 12.3776 216.522 12.0859C216.139 11.7942 215.656 11.6484 215.073 11.6484H211.737V7.71094H216.604C217.789 7.71094 218.819 7.9388 219.694 8.39452C220.587 8.83202 221.28 9.44269 221.772 10.2265C222.264 10.9922 222.51 11.8763 222.51 12.8789C222.51 14.2643 222.018 15.3945 221.034 16.2695C220.049 17.1444 218.609 17.6457 216.713 17.7733L216.659 15.8866C218.719 16.0142 220.295 16.5793 221.389 17.5819C222.483 18.5845 223.03 19.8697 223.03 21.4374C223.03 22.5676 222.747 23.5702 222.182 24.4452C221.617 25.3019 220.824 25.9764 219.803 26.4686C218.801 26.9425 217.625 27.1795 216.276 27.1795H211.737ZM207.307 27.1795V7.71094H212.667V27.1795H207.307Z" fill="#5270FF"/>
<path d="M119.202 20.3358C118.989 23.6006 121.401 26.7008 124.569 27.3402C126.168 27.6599 127.679 27.4662 129.132 26.7686C129.442 26.6233 129.743 26.5845 130.082 26.6621C130.663 26.7977 131.235 26.9236 131.816 27.0496C132.378 27.1755 132.572 26.9914 132.455 26.4199C132.339 25.8386 132.203 25.2573 132.068 24.6857C131.99 24.3369 132.029 24.0075 132.194 23.6781C134.277 19.4638 131.603 14.4648 126.933 13.8448C124.046 13.4572 121.169 14.988 119.88 17.6037C119.454 18.4756 119.192 19.396 119.192 20.3454L119.202 20.3358Z" fill="#5270FF"/>
</svg>
