<svg width="260" height="38" viewBox="0 0 260 38" fill="none" xmlns="http://www.w3.org/2000/svg">
<path d="M15.9587 0.706734C12.8988 1.41287 12.5458 1.55671 10.4927 2.99513C9.95661 3.37435 9.83892 3.60973 10.3489 4.17202C18.1556 12.7241 17.3579 24.8853 11.3427 34.7581C10.9243 35.4381 11.055 35.6604 11.7219 35.935C18.4694 38.7072 24.8116 37.9749 30.696 33.6596C31.6637 32.9404 32.6444 32.5874 33.8475 32.6397C35.312 32.7051 36.7635 32.6658 38.2281 32.6658C39.6142 32.6658 40.0981 31.9074 39.5358 30.6259C38.9212 29.2267 38.3197 27.8275 37.6528 26.4545C37.1689 25.4606 37.1166 24.5061 37.3651 23.4338C39.6665 13.6656 34.2398 4.14587 24.6808 1.19057C21.5947 0.249055 18.4694 0.183672 15.9587 0.706734Z" fill="#FFEF26"/>
<path fill-rule="evenodd" clip-rule="evenodd" d="M37.9047 18.9774C37.9047 29.2306 29.5928 37.5425 19.3395 37.5425C9.0863 37.5425 0.774406 29.2306 0.774406 18.9774C0.774406 8.72416 9.0863 0.412271 19.3395 0.412271C29.5928 0.412271 37.9047 8.72416 37.9047 18.9774ZM36.6718 18.9774C36.6718 28.5497 28.9119 36.3097 19.3395 36.3097C17.5196 36.3097 15.7652 36.0292 14.1172 35.509H16.4668V3.84224L10.4867 4.07343C13.0778 2.53103 16.1052 1.64513 19.3395 1.64513C28.9119 1.64513 36.6718 9.40505 36.6718 18.9774Z" fill="#FFEF26"/>
<path d="M24.256 7.4809C25.9429 7.4809 27.6298 7.4809 29.3167 7.4809C30.7158 7.49398 31.3435 8.12165 31.3827 9.49469C31.4089 10.4362 31.422 11.3777 31.3827 12.3192C31.3435 13.483 30.7158 14.1369 29.552 14.1499C26.7275 14.1761 23.903 14.1499 21.0784 14.163C20.5684 14.163 20.3069 13.9538 20.2023 13.4569C19.8231 11.6392 19.2739 9.87391 18.5023 8.18704C18.2539 7.62474 18.3716 7.44167 18.9862 7.45475C20.7384 7.4809 22.4907 7.45475 24.2429 7.45475L24.256 7.4809Z" fill="#5270FF"/>
<path d="M23.7983 24.0222C22.9222 24.0222 22.0461 24.0091 21.1699 24.0222C20.5815 24.0353 20.333 23.8391 20.4507 23.2114C20.7776 21.5115 20.8561 19.7985 20.7776 18.0724C20.7515 17.497 20.9607 17.2485 21.5492 17.2485C23.1968 17.2747 24.8575 17.2224 26.5052 17.2747C27.7605 17.3139 28.3751 17.9939 28.4013 19.2623C28.4144 20.1646 28.4144 21.08 28.4013 21.9822C28.3751 23.2768 27.7213 23.9437 26.4136 23.983C25.5375 24.0091 24.6614 23.983 23.7853 23.983L23.7983 24.0222Z" fill="#5270FF"/>
<path d="M10.9812 19.9411C10.9812 15.4756 10.9812 11.01 10.9812 6.54448C10.9812 6.0425 11.0937 5.93269 11.593 5.93269C12.1708 5.93269 12.7512 5.94053 13.329 5.92746C13.5644 5.92223 13.716 6.01374 13.8493 6.19936C15.6586 8.7328 16.8612 11.5251 17.4521 14.5814C18.2286 18.5973 17.9201 22.5582 16.8351 26.4773C16.1318 29.0134 15.0938 31.4109 13.8232 33.709C13.7317 33.8737 13.6036 33.9548 13.4127 33.9548C12.7486 33.9521 12.0872 33.9548 11.4231 33.9521C11.146 33.9521 10.9995 33.8005 10.9839 33.5234C10.9786 33.4475 10.9839 33.3691 10.9839 33.2933C10.9839 28.8434 10.9839 24.3936 10.9839 19.9437L10.9812 19.9411Z" fill="#5270FF"/>
<path d="M50.0615 29.8536V8.34737H53.5947V29.8536H50.0615ZM52.4887 20.6366V17.4107H63.4261V20.6366H52.4887ZM52.4887 11.5733V8.34737H63.9484V11.5733H52.4887Z" fill="#F9F9F9"/>
<path d="M73.3137 30.1608C71.8389 30.1608 70.5076 29.8331 69.3197 29.1777C68.1522 28.5017 67.2202 27.58 66.5238 26.4126C65.8479 25.2451 65.51 23.9342 65.51 22.48C65.51 21.0258 65.8479 19.7252 66.5238 18.5782C67.1998 17.4107 68.1112 16.489 69.2582 15.8131C70.4257 15.1372 71.7161 14.7992 73.1293 14.7992C74.5016 14.7992 75.7101 15.1167 76.7547 15.7516C77.8197 16.3866 78.6492 17.2571 79.2432 18.3631C79.8577 19.4691 80.1649 20.7288 80.1649 22.1421C80.1649 22.3878 80.1444 22.6439 80.1035 22.9101C80.083 23.1559 80.042 23.4324 79.9806 23.7397H67.8757V20.9746H78.2294L76.9697 22.0806C76.9287 21.1794 76.7547 20.4216 76.4474 19.8071C76.1402 19.1926 75.6998 18.7215 75.1263 18.3938C74.5733 18.0661 73.8872 17.9023 73.0679 17.9023C72.2076 17.9023 71.46 18.0866 70.8251 18.4553C70.1901 18.824 69.6986 19.3463 69.3504 20.0222C69.0022 20.6776 68.8281 21.4661 68.8281 22.3878C68.8281 23.3095 69.0124 24.1186 69.3811 24.815C69.7498 25.5114 70.2721 26.0541 70.948 26.4433C71.6239 26.812 72.4022 26.9963 73.2829 26.9963C74.0408 26.9963 74.7372 26.8632 75.3721 26.5969C76.0275 26.3306 76.5806 25.9415 77.0312 25.4294L79.1818 27.6108C78.4649 28.4505 77.5944 29.0855 76.5703 29.5156C75.5462 29.9457 74.4607 30.1608 73.3137 30.1608Z" fill="#F9F9F9"/>
<path d="M89.7253 30.1608C88.2506 30.1608 86.9193 29.8331 85.7313 29.1777C84.5639 28.5017 83.6319 27.58 82.9355 26.4126C82.2596 25.2451 81.9217 23.9342 81.9217 22.48C81.9217 21.0258 82.2596 19.7252 82.9355 18.5782C83.6114 17.4107 84.5229 16.489 85.6699 15.8131C86.8374 15.1372 88.1277 14.7992 89.541 14.7992C90.9133 14.7992 92.1217 15.1167 93.1663 15.7516C94.2314 16.3866 95.0609 17.2571 95.6549 18.3631C96.2694 19.4691 96.5766 20.7288 96.5766 22.1421C96.5766 22.3878 96.5561 22.6439 96.5151 22.9101C96.4947 23.1559 96.4537 23.4324 96.3923 23.7397H84.2873V20.9746H94.641L93.3814 22.0806C93.3404 21.1794 93.1663 20.4216 92.8591 19.8071C92.5519 19.1926 92.1115 18.7215 91.538 18.3938C90.985 18.0661 90.2988 17.9023 89.4795 17.9023C88.6193 17.9023 87.8717 18.0866 87.2368 18.4553C86.6018 18.824 86.1102 19.3463 85.7621 20.0222C85.4139 20.6776 85.2398 21.4661 85.2398 22.3878C85.2398 23.3095 85.4241 24.1186 85.7928 24.815C86.1615 25.5114 86.6837 26.0541 87.3597 26.4433C88.0356 26.812 88.8139 26.9963 89.6946 26.9963C90.4524 26.9963 91.1488 26.8632 91.7838 26.5969C92.4392 26.3306 92.9922 25.9415 93.4428 25.4294L95.5935 27.6108C94.8766 28.4505 94.0061 29.0855 92.982 29.5156C91.9579 29.9457 90.8723 30.1608 89.7253 30.1608Z" fill="#F9F9F9"/>
<path d="M105.461 30.1608C104.13 30.1608 102.921 29.8228 101.836 29.1469C100.771 28.471 99.9207 27.5596 99.2858 26.4126C98.6713 25.2451 98.3641 23.9445 98.3641 22.5107C98.3641 21.0565 98.6713 19.7559 99.2858 18.6089C99.9207 17.4414 100.771 16.5197 101.836 15.8438C102.921 15.1474 104.13 14.7992 105.461 14.7992C106.588 14.7992 107.581 15.045 108.441 15.5366C109.322 16.0077 110.018 16.6631 110.53 17.5029C111.042 18.3426 111.298 19.295 111.298 20.3601V24.5999C111.298 25.665 111.042 26.6174 110.53 27.4572C110.039 28.2969 109.353 28.9626 108.472 29.4542C107.591 29.9252 106.588 30.1608 105.461 30.1608ZM106.014 26.9656C106.854 26.9656 107.581 26.7812 108.195 26.4126C108.83 26.0234 109.322 25.4909 109.67 24.815C110.018 24.1391 110.192 23.3607 110.192 22.48C110.192 21.5993 110.018 20.821 109.67 20.1451C109.322 19.4691 108.83 18.9468 108.195 18.5782C107.581 18.189 106.864 17.9944 106.045 17.9944C105.205 17.9944 104.468 18.189 103.833 18.5782C103.218 18.9468 102.727 19.4691 102.358 20.1451C102.01 20.821 101.836 21.5993 101.836 22.48C101.836 23.3607 102.01 24.1391 102.358 24.815C102.727 25.4909 103.218 26.0234 103.833 26.4126C104.468 26.7812 105.195 26.9656 106.014 26.9656ZM113.357 29.8536H109.977V25.8903L110.561 22.2957L109.977 18.7318V7.73291H113.357V29.8536Z" fill="#F9F9F9"/>
<path d="M125.003 30.1608C123.877 30.1608 122.873 29.9252 121.993 29.4542C121.112 28.9626 120.415 28.2969 119.903 27.4572C119.412 26.6174 119.166 25.665 119.166 24.5999V20.3601C119.166 19.295 119.422 18.3426 119.934 17.5029C120.446 16.6631 121.143 16.0077 122.023 15.5366C122.904 15.045 123.897 14.7992 125.003 14.7992C126.335 14.7992 127.533 15.1474 128.598 15.8438C129.684 16.5197 130.534 17.4414 131.148 18.6089C131.783 19.7559 132.1 21.0565 132.1 22.5107C132.1 23.9445 131.783 25.2451 131.148 26.4126C130.534 27.5596 129.684 28.471 128.598 29.1469C127.533 29.8228 126.335 30.1608 125.003 30.1608ZM117.108 29.8536V7.73291H120.487V18.7318L119.903 22.2957L120.487 25.8903V29.8536H117.108ZM124.45 26.9656C125.27 26.9656 125.987 26.7812 126.601 26.4126C127.236 26.0234 127.728 25.4909 128.076 24.815C128.444 24.1391 128.629 23.3607 128.629 22.48C128.629 21.5993 128.444 20.821 128.076 20.1451C127.728 19.4691 127.236 18.9468 126.601 18.5782C125.987 18.189 125.27 17.9944 124.45 17.9944C123.631 17.9944 122.904 18.189 122.269 18.5782C121.634 18.9468 121.143 19.4691 120.794 20.1451C120.446 20.821 120.272 21.5993 120.272 22.48C120.272 23.3607 120.446 24.1391 120.794 24.815C121.143 25.4909 121.634 26.0234 122.269 26.4126C122.904 26.7812 123.631 26.9656 124.45 26.9656Z" fill="#F9F9F9"/>
<path d="M158.642 30.1608C157.188 30.1608 155.867 29.8228 154.679 29.1469C153.512 28.471 152.59 27.5493 151.914 26.3818C151.238 25.2144 150.9 23.9138 150.9 22.48C150.9 21.0258 151.238 19.7252 151.914 18.5782C152.59 17.4107 153.512 16.489 154.679 15.8131C155.867 15.1372 157.188 14.7992 158.642 14.7992C159.789 14.7992 160.854 15.0245 161.838 15.4751C162.841 15.9053 163.691 16.53 164.388 17.3492L162.176 19.592C161.745 19.08 161.223 18.7011 160.609 18.4553C160.015 18.189 159.359 18.0559 158.642 18.0559C157.803 18.0559 157.055 18.2505 156.4 18.6396C155.765 19.0083 155.263 19.5203 154.894 20.1758C154.546 20.8312 154.372 21.5993 154.372 22.48C154.372 23.3403 154.546 24.1083 154.894 24.7842C155.263 25.4397 155.765 25.962 156.4 26.3511C157.055 26.7198 157.803 26.9041 158.642 26.9041C159.359 26.9041 160.015 26.7812 160.609 26.5355C161.223 26.2692 161.745 25.88 162.176 25.368L164.388 27.6108C163.691 28.4301 162.841 29.065 161.838 29.5156C160.854 29.9457 159.789 30.1608 158.642 30.1608Z" fill="#F9F9F9"/>
<path d="M176.195 29.8536L169.958 22.3264L176.164 15.1065H180.189L173.061 23.2174L173.215 21.2818L180.496 29.8536H176.195ZM166.824 29.8536V7.73291H170.204V29.8536H166.824Z" fill="#F9F9F9"/>
<path d="M187.975 29.8536V7.9787H194.119V29.8536H187.975ZM201.186 29.8536V7.9787H207.33V29.8536H201.186ZM191.324 21.2511V16.151H203.582V21.2511H191.324Z" fill="#F9F9F9"/>
<path d="M220.143 30.2222C218.218 30.2222 216.539 29.8331 215.105 29.0548C213.671 28.256 212.555 27.1602 211.756 25.7674C210.957 24.3746 210.558 22.777 210.558 20.9746V7.9787H216.702V21.5276C216.702 22.224 216.856 22.818 217.163 23.3095C217.47 23.8011 217.88 24.18 218.392 24.4463C218.925 24.6921 219.508 24.815 220.143 24.815C220.799 24.815 221.372 24.6921 221.864 24.4463C222.376 24.18 222.775 23.8113 223.062 23.3403C223.349 22.8487 223.492 22.2547 223.492 21.5583V7.9787H229.668V21.0053C229.668 22.8077 229.268 24.4053 228.469 25.7981C227.691 27.1704 226.585 28.256 225.151 29.0548C223.738 29.8331 222.069 30.2222 220.143 30.2222Z" fill="#F9F9F9"/>
<path d="M237.867 29.8536V25.4294H241.891C242.67 25.4294 243.294 25.2246 243.765 24.815C244.236 24.3848 244.472 23.8011 244.472 23.0637C244.472 22.5722 244.359 22.1523 244.134 21.8041C243.929 21.4354 243.632 21.1589 243.243 20.9746C242.874 20.7902 242.424 20.6981 241.891 20.6981H237.867V16.4583H241.615C242.27 16.4583 242.813 16.2944 243.243 15.9667C243.673 15.639 243.888 15.1269 243.888 14.4306C243.888 13.7342 243.673 13.2221 243.243 12.8944C242.813 12.5667 242.27 12.4028 241.615 12.4028H237.867V7.9787H243.335C244.667 7.9787 245.824 8.23472 246.807 8.74677C247.811 9.23834 248.589 9.92449 249.142 10.8052C249.695 11.6655 249.971 12.6589 249.971 13.7854C249.971 15.342 249.418 16.6119 248.312 17.595C247.206 18.5782 245.588 19.1414 243.458 19.2848L243.397 17.1649C245.711 17.3083 247.483 17.9432 248.712 19.0697C249.941 20.1963 250.555 21.6402 250.555 23.4017C250.555 24.6716 250.238 25.7981 249.603 26.7812C248.968 27.7439 248.077 28.5017 246.93 29.0548C245.803 29.5873 244.482 29.8536 242.967 29.8536H237.867ZM232.889 29.8536V7.9787H238.911V29.8536H232.889Z" fill="#F9F9F9"/>
<path d="M133.895 22.164C133.655 25.8324 136.366 29.3157 139.925 30.0342C141.721 30.3934 143.419 30.1757 145.052 29.3919C145.4 29.2286 145.738 29.1851 146.119 29.2722C146.772 29.4246 147.414 29.5661 148.067 29.7076C148.699 29.8491 148.916 29.6423 148.786 29C148.655 28.3469 148.503 27.6938 148.35 27.0515C148.263 26.6597 148.307 26.2895 148.492 25.9194C150.832 21.1843 147.828 15.5674 142.581 14.8707C139.337 14.4353 136.104 16.1552 134.656 19.0942C134.178 20.0739 133.884 21.1081 133.884 22.1748L133.895 22.164Z" fill="#FFEF26"/>
</svg>
