<svg width="41" height="40" viewBox="0 0 41 40" fill="none" xmlns="http://www.w3.org/2000/svg">
<rect x="0.649414" y="0.5" width="39" height="39" rx="3.5" fill="#F0F4FF" stroke="#5270FF"/>
<path d="M20.001 12.354C20.5384 11.7447 21.2487 11.3135 22.0372 11.1178C22.8257 10.9221 23.6552 10.9711 24.4151 11.2584C25.1751 11.5457 25.8296 12.0576 26.2915 12.726C26.7534 13.3943 27.0008 14.1875 27.0008 15C27.0008 15.8125 26.7534 16.6057 26.2915 17.274C25.8296 17.9424 25.1751 18.4543 24.4151 18.7416C23.6552 19.0289 22.8257 19.0779 22.0372 18.8822C21.2487 18.6865 20.5384 18.2553 20.001 17.646M23.001 29H11.001V28C11.001 26.4087 11.6331 24.8826 12.7583 23.7574C13.8836 22.6321 15.4097 22 17.001 22C18.5923 22 20.1184 22.6321 21.2436 23.7574C22.3688 24.8826 23.001 26.4087 23.001 28V29ZM23.001 29H29.001V28C29.0011 26.9467 28.724 25.9119 28.1974 24.9997C27.6709 24.0875 26.9135 23.3299 26.0013 22.8032C25.0892 22.2765 24.0545 21.9992 23.0012 21.9992C21.9479 21.9991 20.9132 22.2764 20.001 22.803M21.001 15C21.001 16.0609 20.5795 17.0783 19.8294 17.8284C19.0793 18.5786 18.0618 19 17.001 19C15.9401 19 14.9227 18.5786 14.1725 17.8284C13.4224 17.0783 13.001 16.0609 13.001 15C13.001 13.9391 13.4224 12.9217 14.1725 12.1716C14.9227 11.4214 15.9401 11 17.001 11C18.0618 11 19.0793 11.4214 19.8294 12.1716C20.5795 12.9217 21.001 13.9391 21.001 15Z" stroke="#5270FF" stroke-width="2" stroke-linecap="round" stroke-linejoin="round"/>
</svg>
