<svg width="41" height="40" viewBox="0 0 41 40" fill="none" xmlns="http://www.w3.org/2000/svg">
<rect x="0.961914" y="0.5" width="39" height="39" rx="3.5" fill="#F0F4FF" stroke="#5270FF"/>
<path d="M19.3206 11.5126C19.6806 10.4074 21.2442 10.4074 21.603 11.5126L22.887 15.4629C22.9654 15.7035 23.1179 15.9131 23.3227 16.0619C23.5274 16.2106 23.7739 16.2907 24.027 16.2909H28.1814C29.3442 16.2909 29.8266 17.7789 28.887 18.4629L25.527 20.9037C25.3218 21.0525 25.169 21.2625 25.0906 21.5035C25.0121 21.7445 25.012 22.0042 25.0902 22.2453L26.3742 26.1957C26.7342 27.3009 25.4682 28.2213 24.5262 27.5373L21.1662 25.0965C20.9612 24.9477 20.7145 24.8676 20.4612 24.8676C20.2079 24.8676 19.9612 24.9477 19.7562 25.0965L16.3962 27.5373C15.4554 28.2213 14.1906 27.3009 14.5494 26.1957L15.8334 22.2453C15.9116 22.0042 15.9115 21.7445 15.833 21.5035C15.7546 21.2625 15.6018 21.0525 15.3966 20.9037L12.0378 18.4641C11.0982 17.7801 11.5818 16.2921 12.7434 16.2921H16.8966C17.1499 16.2922 17.3967 16.2121 17.6016 16.0634C17.8066 15.9147 17.9593 15.7049 18.0378 15.4641L19.3218 11.5138L19.3206 11.5126Z" fill="#5270FF"/>
</svg>
