<svg width="33" height="32" viewBox="0 0 33 32" fill="none" xmlns="http://www.w3.org/2000/svg">
<g id="Social Media">
<path id="Vector" fill-rule="evenodd" clip-rule="evenodd" d="M25.6566 12.1014C25.6643 12.3013 25.6669 12.5011 25.6669 12.701C25.6669 18.7606 21.4042 25.7561 13.6093 25.7561C11.2148 25.7561 8.98826 24.993 7.1123 23.6938C7.44391 23.7302 7.78069 23.7575 8.12264 23.7575C10.108 23.7575 11.9366 23.0215 13.387 21.7859C11.5326 21.7586 9.96673 20.4232 9.42669 18.6062C9.68594 18.6607 9.95293 18.688 10.226 18.688C10.611 18.688 10.9848 18.6336 11.3431 18.5246C9.40255 18.1066 7.9409 16.2534 7.9409 14.0275C7.9409 14.0003 7.9409 13.9912 7.9409 13.973C8.51282 14.3091 9.16741 14.518 9.8625 14.5452C8.72383 13.7185 7.97533 12.3104 7.97533 10.7205C7.97533 9.88469 8.18377 9.09426 8.5507 8.41289C10.6403 11.1929 13.7643 13.019 17.2862 13.2098C17.2139 12.8736 17.1768 12.5194 17.1768 12.1651C17.1768 9.63039 19.0743 7.57715 21.4154 7.57715C22.6342 7.57715 23.7349 8.13141 24.5075 9.02173C25.4748 8.82187 26.3809 8.44032 27.2009 7.9134C26.8831 8.98542 26.2121 9.88464 25.3353 10.4479C26.1931 10.3389 27.0114 10.0938 27.7702 9.73039C27.2009 10.648 26.4843 11.4564 25.6566 12.1014Z" fill="#F1F5F9"/>
</g>
</svg>
